<svg width="102" height="101" viewBox="0 0 102 101" fill="none" xmlns="http://www.w3.org/2000/svg">
<g clip-path="url(#clip0)">
<path d="M14.4388 72.4989C14.4388 72.4989 101.674 94.948 101.674 101C87.3701 101 3.41493 92.5164 3.41493 92.5164L14.4388 72.4989Z" fill="url(#paint0_linear)"/>
<path d="M11.624 0.863524C12.6015 -0.112522 14.6103 0.310676 16.1095 1.80777L30.0486 15.7268C31.5478 17.2239 31.9716 19.2298 30.9966 20.2059L28.7527 22.4466L9.38008 3.10427L11.624 0.863524Z" fill="url(#paint1_linear)"/>
<path d="M0.864774 11.6074L2.67513 9.79961L22.0453 29.142L20.2374 30.9497C19.2599 31.9233 17.2536 31.5001 15.7543 30.003L1.81527 16.084C0.313581 14.5869 -0.112674 12.581 0.864774 11.6074Z" fill="url(#paint2_linear)"/>
<path d="M9.63242 2.84986L29.0025 22.1922L21.7464 29.4404L2.37628 10.098L9.63242 2.84986Z" fill="url(#paint3_linear)"/>
<path d="M12.3451 1.58266L1.58578 12.3265C0.610785 13.3001 1.03214 15.3036 2.53138 16.8007L1.4731 15.7439C-0.0261482 14.2468 -0.449954 12.2409 0.527494 11.2673L11.2868 0.523443C12.2618 -0.450158 14.2706 -0.0269595 15.7698 1.47013L16.8281 2.52691C15.3288 1.02981 13.3201 0.60906 12.3451 1.58266Z" fill="url(#paint4_linear)"/>
<path d="M8.34138 5.67036L9.1351 4.87778L10.8083 3.20701L15.7862 8.1753L13.3193 10.6387L8.34138 5.67036Z" fill="url(#paint5_linear)"/>
<path d="M2.72661 11.2747L3.52033 10.4821L5.1935 8.81377L10.1714 13.7821L7.70449 16.2454L2.72661 11.2747Z" fill="url(#paint6_linear)"/>
<path d="M81.5348 90.3956L101.358 100.983L78.8842 93.0448L81.5348 90.3956Z" fill="url(#paint7_linear)"/>
<path d="M93.1785 78.7686L101.983 100.357L90.5254 81.4179L93.1785 78.7686Z" fill="url(#paint8_linear)"/>
<path d="M90.5254 81.4179L86.0301 85.9067L90.5254 81.4179Z" fill="url(#paint9_linear)"/>
<path d="M86.0301 85.9067L90.5254 81.4179L101.983 100.357C102.076 100.794 101.797 101.076 101.358 100.98L81.5348 90.3931L86.0301 85.9067Z" fill="url(#paint10_linear)"/>
<path d="M86.0301 85.9067L101.983 100.357C102.076 100.794 101.797 101.076 101.358 100.98L81.5348 90.3931L86.0301 85.9067Z" fill="url(#paint11_linear)"/>
<path d="M101.983 100.357C102.076 100.794 101.797 101.076 101.358 100.98L92.7571 97.9422L98.6194 92.0957L101.983 100.357Z" fill="url(#paint12_linear)"/>
<path d="M88.8694 83.1107L93.1981 78.7882L24.1398 9.82896L19.8135 14.1539L88.8694 83.1107Z" fill="url(#paint13_linear)"/>
<path d="M78.9039 93.0644L82.7157 89.2556L13.6598 20.2988L9.84557 24.1052L78.9039 93.0644Z" fill="url(#paint14_linear)"/>
<path d="M82.0322 89.9381L88.328 88.737L89.5308 82.4502L20.475 13.4934L12.9763 20.9813L82.0322 89.9381Z" fill="url(#paint15_linear)"/>
<path d="M20.475 13.491V13.4934L19.4314 14.5355L19.2673 14.697H19.2697L19.5857 14.3814L89.2467 83.94L89.5308 82.4502L89.8493 82.1322L20.791 13.1754L20.475 13.491Z" fill="url(#paint16_linear)"/>
<path d="M14.8993 20.1472L14.3604 20.6853L13.2556 21.7886L81.7676 90.2023L82.0321 89.9381L83.6147 89.6373L14.4633 20.5826L14.8993 20.1472Z" fill="url(#paint17_linear)"/>
<path d="M4.59575 18.8629L18.8925 4.58913L31.9741 17.652L17.6774 31.9258L4.59575 18.8629Z" fill="url(#paint18_linear)"/>
<path d="M18.7406 4.43747L19.9458 5.64346L5.65159 19.9172L4.44386 18.7137L18.7406 4.43747Z" fill="url(#paint19_linear)"/>
<path d="M28.515 14.1979L29.1177 14.7997L14.821 29.0759L14.2183 28.4717L28.515 14.1979Z" fill="url(#paint20_linear)"/>
<path d="M25.862 11.5487L26.4646 12.1504L12.1679 26.4266L11.5653 25.8249L25.862 11.5487Z" fill="url(#paint21_linear)"/>
<path d="M18.5323 32.7819L32.8266 18.5057L31.6213 17.2998L17.3271 31.576L18.5323 32.7819Z" fill="url(#paint22_linear)"/>
</g>
<defs>
<linearGradient id="paint0_linear" x1="14.7394" y1="82.9277" x2="220.48" y2="151.361" gradientUnits="userSpaceOnUse">
<stop stop-color="white"/>
<stop offset="0.8681" stop-color="#242424"/>
<stop offset="1"/>
</linearGradient>
<linearGradient id="paint1_linear" x1="-16.6898" y1="48.4793" x2="56.8588" y2="-25.1749" gradientUnits="userSpaceOnUse">
<stop stop-color="white"/>
<stop offset="0.25" stop-color="#FFB3BE"/>
<stop offset="0.5" stop-color="#ED7587"/>
<stop offset="0.75" stop-color="#D63E5C"/>
<stop offset="1" stop-color="#C21F3F"/>
</linearGradient>
<linearGradient id="paint2_linear" x1="33.5361" y1="-1.67503" x2="0.315686" y2="31.5931" gradientUnits="userSpaceOnUse">
<stop stop-color="white"/>
<stop offset="0.25" stop-color="#FFB3BE"/>
<stop offset="0.5" stop-color="#ED7587"/>
<stop offset="0.75" stop-color="#D63E5C"/>
<stop offset="1" stop-color="#C21F3F"/>
</linearGradient>
<linearGradient id="paint3_linear" x1="60.4086" y1="-28.5093" x2="-21.2616" y2="53.2781" gradientUnits="userSpaceOnUse">
<stop stop-color="white"/>
<stop offset="0.25" stop-color="#FFB3BE"/>
<stop offset="0.5" stop-color="#ED7587"/>
<stop offset="0.75" stop-color="#D63E5C"/>
<stop offset="1" stop-color="#C21F3F"/>
</linearGradient>
<linearGradient id="paint4_linear" x1="-13.7478" y1="-13.7293" x2="11.8514" y2="11.9067" gradientUnits="userSpaceOnUse">
<stop stop-color="white"/>
<stop offset="0.25" stop-color="#FFB3BE"/>
<stop offset="0.5" stop-color="#ED7587"/>
<stop offset="0.75" stop-color="#D63E5C"/>
<stop offset="1" stop-color="#C21F3F"/>
</linearGradient>
<linearGradient id="paint5_linear" x1="34.4656" y1="-15.4468" x2="-15.4776" y2="34.5682" gradientUnits="userSpaceOnUse">
<stop stop-color="white"/>
<stop offset="0.25" stop-color="#FFB3BE"/>
<stop offset="0.5" stop-color="#ED7587"/>
<stop offset="0.75" stop-color="#D63E5C"/>
<stop offset="1" stop-color="#C21F3F"/>
</linearGradient>
<linearGradient id="paint6_linear" x1="44.5968" y1="-25.5633" x2="-23.5558" y2="42.6872" gradientUnits="userSpaceOnUse">
<stop stop-color="white"/>
<stop offset="0.25" stop-color="#FFB3BE"/>
<stop offset="0.5" stop-color="#ED7587"/>
<stop offset="0.75" stop-color="#D63E5C"/>
<stop offset="1" stop-color="#C21F3F"/>
</linearGradient>
<linearGradient id="paint7_linear" x1="101.323" y1="71.0385" x2="88.77" y2="100.23" gradientUnits="userSpaceOnUse">
<stop stop-color="white"/>
<stop offset="0.25" stop-color="#F2DBA2"/>
<stop offset="0.5" stop-color="#DBB47D"/>
<stop offset="0.75" stop-color="#C39866"/>
<stop offset="1" stop-color="#AD8752"/>
</linearGradient>
<linearGradient id="paint8_linear" x1="83.5995" y1="99.9414" x2="107.674" y2="82.0198" gradientUnits="userSpaceOnUse">
<stop stop-color="white"/>
<stop offset="0.25" stop-color="#F2DBA2"/>
<stop offset="0.5" stop-color="#DBB47D"/>
<stop offset="0.75" stop-color="#C39866"/>
<stop offset="1" stop-color="#AD8752"/>
</linearGradient>
<linearGradient id="paint9_linear" x1="97.3598" y1="75.0248" x2="84.1575" y2="87.6175" gradientUnits="userSpaceOnUse">
<stop stop-color="white"/>
<stop offset="0.25" stop-color="#FFD952"/>
<stop offset="0.5" stop-color="#F5B533"/>
<stop offset="0.75" stop-color="#E39900"/>
<stop offset="1" stop-color="#D98000"/>
</linearGradient>
<linearGradient id="paint10_linear" x1="84.0602" y1="104.924" x2="128.128" y2="51.1991" gradientUnits="userSpaceOnUse">
<stop stop-color="white"/>
<stop offset="0.25" stop-color="#F2DBA2"/>
<stop offset="0.5" stop-color="#DBB47D"/>
<stop offset="0.75" stop-color="#C39866"/>
<stop offset="1" stop-color="#AD8752"/>
</linearGradient>
<linearGradient id="paint11_linear" x1="117.193" y1="62.6949" x2="68.3396" y2="126.007" gradientUnits="userSpaceOnUse">
<stop stop-color="white"/>
<stop offset="0.25" stop-color="#F2DBA2"/>
<stop offset="0.5" stop-color="#DBB47D"/>
<stop offset="0.75" stop-color="#C39866"/>
<stop offset="1" stop-color="#AD8752"/>
</linearGradient>
<linearGradient id="paint12_linear" x1="106.796" y1="92.1575" x2="96.7094" y2="98.8441" gradientUnits="userSpaceOnUse">
<stop stop-color="white"/>
<stop offset="0.25" stop-color="#BFBFBF"/>
<stop offset="0.5" stop-color="#808080"/>
<stop offset="0.75" stop-color="#404040"/>
<stop offset="1"/>
</linearGradient>
<linearGradient id="paint13_linear" x1="46.3164" y1="56.645" x2="63.6384" y2="39.2981" gradientUnits="userSpaceOnUse">
<stop stop-color="white"/>
<stop offset="0.25" stop-color="#FFD952"/>
<stop offset="0.5" stop-color="#F5B533"/>
<stop offset="0.75" stop-color="#E39900"/>
<stop offset="1" stop-color="#D98000"/>
</linearGradient>
<linearGradient id="paint14_linear" x1="101.052" y1="1.98811" x2="32.2702" y2="70.8689" gradientUnits="userSpaceOnUse">
<stop stop-color="white"/>
<stop offset="0.25" stop-color="#FFD952"/>
<stop offset="0.5" stop-color="#F5B533"/>
<stop offset="0.75" stop-color="#E39900"/>
<stop offset="1" stop-color="#D98000"/>
</linearGradient>
<linearGradient id="paint15_linear" x1="77.9453" y1="27.6043" x2="24.7761" y2="80.8497" gradientUnits="userSpaceOnUse">
<stop stop-color="white"/>
<stop offset="0.25" stop-color="#FFD952"/>
<stop offset="0.5" stop-color="#F5B533"/>
<stop offset="0.75" stop-color="#E39900"/>
<stop offset="1" stop-color="#D98000"/>
</linearGradient>
<linearGradient id="paint16_linear" x1="59.2856" y1="44.2981" x2="34.1792" y2="69.4406" gradientUnits="userSpaceOnUse">
<stop stop-color="white"/>
<stop offset="0.25" stop-color="#FFD952"/>
<stop offset="0.5" stop-color="#F5B533"/>
<stop offset="0.75" stop-color="#E39900"/>
<stop offset="1" stop-color="#D98000"/>
</linearGradient>
<linearGradient id="paint17_linear" x1="86.0547" y1="18.1475" x2="-45.9589" y2="150.351" gradientUnits="userSpaceOnUse">
<stop stop-color="white"/>
<stop offset="0.25" stop-color="#FFD952"/>
<stop offset="0.5" stop-color="#F5B533"/>
<stop offset="0.75" stop-color="#E39900"/>
<stop offset="1" stop-color="#D98000"/>
</linearGradient>
<linearGradient id="paint18_linear" x1="25.4321" y1="11.1199" x2="11.157" y2="25.4155" gradientUnits="userSpaceOnUse">
<stop stop-color="#323232"/>
<stop offset="0.1209" stop-color="#323232"/>
<stop offset="0.1314" stop-color="#4F4F4F"/>
<stop offset="0.1488" stop-color="#787878"/>
<stop offset="0.1678" stop-color="#9D9D9D"/>
<stop offset="0.1881" stop-color="#BBBBBB"/>
<stop offset="0.2103" stop-color="#D4D4D4"/>
<stop offset="0.235" stop-color="#E7E7E7"/>
<stop offset="0.2636" stop-color="#F5F5F5"/>
<stop offset="0.2998" stop-color="#FDFDFD"/>
<stop offset="0.3681" stop-color="white"/>
<stop offset="0.3973" stop-color="#F8F8F8"/>
<stop offset="0.4382" stop-color="#E6E6E6"/>
<stop offset="0.486" stop-color="#C8C8C8"/>
<stop offset="0.5391" stop-color="#9E9E9E"/>
<stop offset="0.5958" stop-color="#6A6A6A"/>
<stop offset="0.6484" stop-color="#323232"/>
<stop offset="0.6725" stop-color="#363636"/>
<stop offset="0.6958" stop-color="#414141"/>
<stop offset="0.7188" stop-color="#555555"/>
<stop offset="0.7416" stop-color="#707070"/>
<stop offset="0.7642" stop-color="#939393"/>
<stop offset="0.7865" stop-color="#BEBEBE"/>
<stop offset="0.7912" stop-color="#C8C8C8"/>
<stop offset="0.8235" stop-color="#B7B7B7"/>
<stop offset="0.887" stop-color="#8C8C8C"/>
<stop offset="0.975" stop-color="#474747"/>
<stop offset="1" stop-color="#323232"/>
</linearGradient>
<linearGradient id="paint19_linear" x1="19.3436" y1="5.04036" x2="5.06825" y2="19.3362" gradientUnits="userSpaceOnUse">
<stop stop-color="#5A5A5A"/>
<stop offset="0.1484" stop-color="#F0F0F0"/>
<stop offset="0.2637" stop-color="#BEBEBE"/>
<stop offset="0.2854" stop-color="#D2D2D2"/>
<stop offset="0.3157" stop-color="#E6E6E6"/>
<stop offset="0.3502" stop-color="#F4F4F4"/>
<stop offset="0.392" stop-color="#FCFCFC"/>
<stop offset="0.4615" stop-color="white"/>
<stop offset="0.5364" stop-color="#CBCBCB"/>
<stop offset="0.6044" stop-color="#A0A0A0"/>
<stop offset="0.6396" stop-color="#A4A4A4"/>
<stop offset="0.6737" stop-color="#AFAFAF"/>
<stop offset="0.7073" stop-color="#C3C3C3"/>
<stop offset="0.7403" stop-color="#DEDEDE"/>
<stop offset="0.7582" stop-color="#F0F0F0"/>
<stop offset="0.7956" stop-color="#DFDFDF"/>
<stop offset="0.8691" stop-color="#B4B4B4"/>
<stop offset="0.971" stop-color="#6F6F6F"/>
<stop offset="1" stop-color="#5A5A5A"/>
</linearGradient>
<linearGradient id="paint20_linear" x1="50.1044" y1="50.0324" x2="4.14829" y2="4.01039" gradientUnits="userSpaceOnUse">
<stop stop-color="white"/>
<stop offset="0.2582" stop-color="#B9B9B9"/>
<stop offset="0.5165" stop-color="#7D7D7D"/>
<stop offset="0.7473" stop-color="#414141"/>
<stop offset="1" stop-color="#050505"/>
</linearGradient>
<linearGradient id="paint21_linear" x1="49.2731" y1="49.202" x2="1.22106" y2="1.08094" gradientUnits="userSpaceOnUse">
<stop stop-color="white"/>
<stop offset="0.2582" stop-color="#B9B9B9"/>
<stop offset="0.5165" stop-color="#7D7D7D"/>
<stop offset="0.7473" stop-color="#414141"/>
<stop offset="1" stop-color="#050505"/>
</linearGradient>
<linearGradient id="paint22_linear" x1="85.1674" y1="97.4905" x2="56.4271" y2="62.7395" gradientUnits="userSpaceOnUse">
<stop stop-color="white"/>
<stop offset="0.25" stop-color="#FFD952"/>
<stop offset="0.5" stop-color="#F5B533"/>
<stop offset="0.75" stop-color="#E39900"/>
<stop offset="1" stop-color="#D98000"/>
</linearGradient>
<clipPath id="clip0">
<rect width="102" height="101" fill="white"/>
</clipPath>
</defs>
</svg>
